<svg width="49" height="43" viewBox="0 0 49 43" fill="none" xmlns="http://www.w3.org/2000/svg">
<path fill-rule="evenodd" clip-rule="evenodd" d="M6.29655 3.23605C5.06174 3.23605 4.05592 4.24187 4.05592 5.47667V28.4611H0.460938V2.26992C0.460938 1.03512 1.46676 0.0292969 2.70157 0.0292969H46.2103C47.4451 0.0292969 48.4509 1.03512 48.4509 2.26992V28.4611H44.8758V5.47667C44.8758 4.24187 43.87 3.23605 42.6352 3.23605H6.29655ZM43.3735 10.6543V28.4599H39.7382V25.1237C39.7382 24.7055 39.3996 24.3768 38.9913 24.3768H26.2545C25.8362 24.3768 25.5076 24.7154 25.5076 25.1237V28.4599H23.4263V25.1237C23.4263 24.7055 23.0877 24.3768 22.6794 24.3768H9.93253C9.51428 24.3768 9.18565 24.7154 9.18565 25.1237V28.4599H5.55078V10.6543H43.3735ZM38.9818 22.5445C39.4001 22.5445 39.7287 22.2059 39.7287 21.7976V13.7312C39.7287 13.313 39.3901 12.9843 38.9818 12.9843H9.9326C9.51435 12.9843 9.18572 13.3229 9.18572 13.7312V21.7976C9.18572 22.2159 9.5243 22.5445 9.9326 22.5445H38.9818ZM38.2336 25.8711H27V28.4604H38.2336V25.8711ZM10.6875 25.8711H21.9211V28.4604H10.6875V25.8711ZM43.3731 5.46564C43.3731 5.05733 43.0346 4.71875 42.6263 4.71875H6.29767C5.88937 4.71875 5.55078 5.05734 5.55078 5.46564V9.1503H43.3735L43.3731 5.46564ZM8.39936 8.02493C7.77198 8.02493 7.25415 7.50709 7.25415 6.87972C7.25415 6.25235 7.76203 5.7345 8.39936 5.7345C9.0367 5.7345 9.55459 6.24238 9.54458 6.87972C9.54458 7.5071 9.0367 8.02493 8.39936 8.02493ZM12.094 8.02493C11.4666 8.02493 10.9487 7.50709 10.9487 6.87972C10.9487 6.25235 11.4566 5.7345 12.094 5.7345C12.7313 5.7345 13.2392 6.25235 13.2392 6.87972C13.2392 7.50709 12.7213 8.02493 12.094 8.02493ZM15.7786 8.02493C15.1512 8.02493 14.6334 7.50709 14.6334 6.87972C14.6334 6.25235 15.1413 5.7345 15.7786 5.7345C16.416 5.7345 16.9238 6.25235 16.9238 6.87972C16.9238 7.50709 16.416 8.02493 15.7786 8.02493ZM38.2426 21.0509H10.6875V14.4883H38.2426V21.0509ZM0.460938 29.9551V32.5244C0.460938 33.7692 1.46676 34.775 2.71158 34.765H46.2203C47.4551 34.765 48.4609 33.7592 48.4609 32.5244V29.9551H0.460938ZM28.8827 41.0775H35.1264C35.6443 41.0775 36.0725 41.5057 36.0725 42.0236C36.0725 42.5415 35.6443 42.9697 35.1264 42.9697H13.8055C13.2876 42.9697 12.8594 42.5415 12.8594 42.0236C12.8594 41.5057 13.2876 41.0775 13.8055 41.0775H20.0395L20.6769 36.2676H28.2453L28.8827 41.0775Z" fill="url(#paint0_linear_211_9340)"/>
<defs>
<linearGradient id="paint0_linear_211_9340" x1="24.4609" y1="0.0292969" x2="24.4609" y2="42.9697" gradientUnits="userSpaceOnUse">
<stop stop-color="#FC00FF"/>
<stop offset="1" stop-color="#00DBDE"/>
</linearGradient>
</defs>
</svg>
