<svg width="29" height="29" viewBox="0 0 29 29" fill="none" xmlns="http://www.w3.org/2000/svg">
<path d="M23.9258 8.78418H5.25911C3.97045 8.78418 2.92578 9.82885 2.92578 11.1175V22.7842C2.92578 24.0728 3.97045 25.1175 5.25911 25.1175H23.9258C25.2144 25.1175 26.2591 24.0728 26.2591 22.7842V11.1175C26.2591 9.82885 25.2144 8.78418 23.9258 8.78418Z" stroke="#C2C2C2" stroke-width="2" stroke-linecap="round" stroke-linejoin="round"/>
<path d="M19.2591 8.78385V4.63571C19.2591 4.49819 19.0133 4.3663 18.5757 4.26906C18.1381 4.17182 17.5446 4.11719 16.9258 4.11719H12.2591C11.6403 4.11719 11.0468 4.17182 10.6092 4.26906C10.1716 4.3663 9.92578 4.49819 9.92578 4.63571V8.78385" stroke="#C2C2C2" stroke-width="2" stroke-linecap="round" stroke-linejoin="round"/>
</svg>
