<svg width="65" height="42" viewBox="0 0 65 42" fill="none" xmlns="http://www.w3.org/2000/svg">
<path d="M19.5553 31.3602C16.8201 31.8747 15.0182 34.51 15.5331 37.2457C16.0476 39.9809 18.6833 41.7818 21.4191 41.2679C24.1548 40.7534 25.9557 38.1177 25.4413 35.3824C24.9259 32.6467 22.2906 30.8458 19.5553 31.3602Z" fill="url(#paint0_linear_211_9327)"/>
<path d="M54.5164 16.9911C54.5692 16.5104 54.5887 16.0231 54.5887 15.5323C54.5887 6.99109 47.6685 0.0732422 39.1296 0.0732422C32.5017 0.0732422 26.8664 4.24956 24.6659 10.1146C23.2119 8.51543 21.135 7.49356 18.8014 7.49356C14.4027 7.49356 10.8399 11.0564 10.8399 15.4551C10.8399 15.9743 10.8932 16.4793 10.9922 16.9719C5.12434 17.9404 0.636719 22.9987 0.636719 29.1317C0.636719 32.3175 1.83894 35.2184 3.8131 37.4096L3.76836 37.1712C3.56656 36.097 7.12615 36.9156 7.58732 34.1571C8.04993 31.3885 4.40753 31.0164 4.94631 30.063L7.16039 26.1412C7.69821 25.1889 9.89229 28.1069 12.0255 26.2921C14.1677 24.4702 11.6228 21.8387 12.649 21.4565L16.8701 19.8854C17.8953 19.5037 17.6916 23.1518 20.4958 23.1374C23.3057 23.1231 23.0578 19.4737 24.0887 19.843L28.3279 21.3635C29.285 21.711 27.2665 23.9346 28.6367 25.7812C28.8685 26.093 29.057 26.2586 29.3916 26.4394C31.4909 27.5717 33.3642 25.1035 33.882 25.9978L36.138 29.8952C36.6853 30.8395 33.0501 31.254 33.5384 33.994C34.0272 36.7335 37.5806 35.8678 37.3931 36.9429L36.6216 41.3801C36.613 41.4277 36.593 41.4624 36.5745 41.4986H52.2699C59.1005 41.4986 64.6367 35.9696 64.6367 29.1318C64.6367 23.0736 60.2695 18.0568 54.5164 16.991L54.5164 16.9911Z" fill="url(#paint1_linear_211_9327)"/>
<defs>
<linearGradient id="paint0_linear_211_9327" x1="20.4872" y1="31.2725" x2="20.4872" y2="41.3554" gradientUnits="userSpaceOnUse">
<stop stop-color="#FC00FF"/>
<stop offset="1" stop-color="#00DBDE"/>
</linearGradient>
<linearGradient id="paint1_linear_211_9327" x1="32.6367" y1="0.0732422" x2="32.6367" y2="41.4986" gradientUnits="userSpaceOnUse">
<stop stop-color="#FC00FF"/>
<stop offset="1" stop-color="#00DBDE"/>
</linearGradient>
</defs>
</svg>





