<svg width="48" height="49" viewBox="0 0 48 49" fill="none" xmlns="http://www.w3.org/2000/svg">
<path fill-rule="evenodd" clip-rule="evenodd" d="M3.67517 0.887695H44.9994L44.9995 0.887704C46.6496 0.887704 47.9996 2.23781 47.9996 3.8126V11.8376L0 11.838V4.56287C0 2.5378 1.65011 0.887695 3.67517 0.887695ZM4.20005 6.36254C4.20005 7.41246 5.10014 8.31264 6.15016 8.31264C7.19973 8.31264 8.09992 7.48777 8.10027 6.36254C8.10027 5.31261 7.20008 4.41243 6.15016 4.41243C5.10023 4.41243 4.20005 5.31261 4.20005 6.36254ZM11.7748 6.36254C11.7748 7.41246 12.6 8.31264 13.7249 8.31264C14.8498 8.31264 15.75 7.48777 15.675 6.36254C15.675 5.31261 14.7749 4.41243 13.7249 4.41243C12.5997 4.41243 11.7748 5.31261 11.7748 6.36254ZM19.4249 6.36254C19.4249 7.41246 20.325 8.31264 21.375 8.31264C22.4249 8.31264 23.3248 7.48777 23.3251 6.36254C23.3251 5.31261 22.425 4.41243 21.375 4.41243C20.3251 4.41243 19.4249 5.31261 19.4249 6.36254ZM27.5245 7.11281H43.0497C43.4996 7.11281 43.7996 6.81275 43.7996 6.36285C43.7996 5.98788 43.4996 5.6129 43.0497 5.6129H27.5245C27.0746 5.6129 26.7745 5.98788 26.7745 6.36285C26.7745 6.81276 27.0746 7.11281 27.5245 7.11281ZM3.67517 48.8869C1.65011 48.8869 0 47.2368 0 45.2117L0.000176687 13.3369H47.9998V45.212C47.9998 47.2368 46.3501 48.8869 44.325 48.8869H3.67517ZM11.8505 18.062H9.15037L9.15044 18.0621C8.77546 18.0621 8.47542 18.3621 8.47507 18.812C8.47507 19.187 8.77512 19.4871 9.1501 19.4871H11.8502C11.9255 19.4871 12.0004 19.562 12.0753 19.6369L13.2006 22.1119L15.0005 34.4117L15.0754 35.0118L13.9505 36.8117C13.0503 38.2367 14.1003 40.1116 15.7504 40.1116H16.9502C16.8 40.4865 16.6502 40.9368 16.6502 41.3867C16.6502 42.887 17.8504 44.0868 19.3503 44.0868C20.8506 44.0868 22.0504 42.8866 22.0504 41.3867C22.0504 40.9364 21.9755 40.4865 21.7504 40.1116H30.7496C30.5994 40.4865 30.4495 40.9368 30.4495 41.3867C30.4495 42.887 31.6497 44.0868 33.1497 44.0868C34.6499 44.0868 35.8498 42.8866 35.8498 41.3867C35.8498 40.9364 35.7749 40.4865 35.5497 40.1116H38.6248C38.9998 40.1116 39.2998 39.8115 39.2998 39.4365C39.2998 39.0616 38.9998 38.7615 38.6248 38.7615H15.8249C15.4467 38.7615 15.2802 38.5494 15.1923 38.4373C15.1757 38.4161 15.1618 38.3985 15.1499 38.3865L15.1498 38.3863C15.0748 38.2364 14.9249 37.9365 15.1499 37.6366L16.1999 35.9865L36.5999 35.9868C37.5001 35.9868 38.2501 35.3122 38.325 34.412L39.5248 23.0872C39.5998 22.5621 39.375 22.1122 39.0749 21.7372C38.7748 21.3622 38.3246 21.1371 37.7998 21.1371H14.3255L13.3504 19.0371C13.1256 18.437 12.5255 18.062 11.8505 18.062ZM26.3234 31.9384C26.9236 31.9384 27.3735 31.4885 27.3735 30.8884V26.2385C27.3735 25.6384 26.9236 25.1885 26.3234 25.1885C25.7233 25.1885 25.2734 25.6384 25.2734 26.2385V30.8884C25.3484 31.4885 25.7983 31.9384 26.3234 31.9384ZM33.1508 30.8884C33.1508 31.4885 32.7009 31.9384 32.1008 31.9384C31.5756 31.9384 31.1257 31.4885 31.0508 30.8884V26.2385C31.0508 25.6384 31.5007 25.1885 32.1008 25.1885C32.7009 25.1885 33.1508 25.6384 33.1508 26.2385V30.8884Z" fill="white"/>
</svg>
