<svg width="14" height="13" viewBox="0 0 14 13" fill="none" xmlns="http://www.w3.org/2000/svg">
<path fill-rule="evenodd" clip-rule="evenodd" d="M6.97677 0.0258789C5.23862 0.0258789 5.02048 0.033479 4.33781 0.064546C3.65647 0.0957463 3.1914 0.203614 2.78446 0.361882C2.36352 0.525351 2.00645 0.74402 1.65072 1.09989C1.29471 1.45563 1.07604 1.8127 0.912042 2.2335C0.753374 2.64057 0.645373 3.10578 0.614706 3.78685C0.584172 4.46952 0.576172 4.68779 0.576172 6.42595C0.576172 8.1641 0.583905 8.38157 0.614839 9.06424C0.646173 9.74558 0.75404 10.2107 0.912175 10.6176C1.07578 11.0385 1.29445 11.3956 1.65032 11.7513C2.00592 12.1073 2.36299 12.3265 2.78366 12.49C3.19087 12.6483 3.65607 12.7561 4.33728 12.7873C5.01995 12.8184 5.23795 12.826 6.97597 12.826C8.71426 12.826 8.93173 12.8184 9.6144 12.7873C10.2957 12.7561 10.7613 12.6483 11.1685 12.49C11.5894 12.3265 11.9459 12.1073 12.3015 11.7513C12.6575 11.3956 12.8762 11.0385 13.0402 10.6177C13.1975 10.2107 13.3055 9.74545 13.3375 9.06437C13.3682 8.3817 13.3762 8.1641 13.3762 6.42595C13.3762 4.68779 13.3682 4.46966 13.3375 3.78698C13.3055 3.10564 13.1975 2.64057 13.0402 2.23364C12.8762 1.8127 12.6575 1.45563 12.3015 1.09989C11.9455 0.743886 11.5895 0.525217 11.1681 0.361882C10.7601 0.203614 10.2948 0.0957463 9.61347 0.064546C8.93079 0.033479 8.71346 0.0258789 6.97477 0.0258789H6.97677ZM6.4026 1.17921C6.57301 1.17894 6.76314 1.17921 6.97674 1.17921C8.68556 1.17921 8.8881 1.18534 9.5629 1.21601C10.1869 1.24454 10.5256 1.34881 10.7512 1.43641C11.0499 1.55241 11.2628 1.69108 11.4867 1.91508C11.7107 2.13908 11.8493 2.35242 11.9656 2.65109C12.0532 2.87642 12.1576 3.21509 12.186 3.8391C12.2167 4.51377 12.2233 4.71644 12.2233 6.42446C12.2233 8.13248 12.2167 8.33515 12.186 9.00982C12.1575 9.63383 12.0532 9.9725 11.9656 10.1978C11.8496 10.4965 11.7107 10.7092 11.4867 10.933C11.2627 11.157 11.05 11.2957 10.7512 11.4117C10.5258 11.4997 10.1869 11.6037 9.5629 11.6322C8.88823 11.6629 8.68556 11.6696 6.97674 11.6696C5.26779 11.6696 5.06526 11.6629 4.39058 11.6322C3.76658 11.6034 3.42791 11.4992 3.20217 11.4116C2.9035 11.2956 2.69017 11.1569 2.46616 10.9329C2.24216 10.7089 2.10349 10.4961 1.98723 10.1973C1.89962 9.97196 1.79522 9.6333 1.76682 9.00929C1.73616 8.33461 1.73002 8.13195 1.73002 6.42286C1.73002 4.71378 1.73616 4.51217 1.76682 3.8375C1.79536 3.21349 1.89962 2.87482 1.98723 2.64922C2.10323 2.35055 2.24216 2.13722 2.46616 1.91321C2.69017 1.68921 2.9035 1.55054 3.20217 1.43428C3.42777 1.34627 3.76658 1.24227 4.39058 1.21361C4.98099 1.18694 5.20979 1.17894 6.4026 1.17761V1.17921ZM10.3931 2.24189C9.96905 2.24189 9.62504 2.58549 9.62504 3.00963C9.62504 3.43363 9.96905 3.77764 10.3931 3.77764C10.8171 3.77764 11.1611 3.43363 11.1611 3.00963C11.1611 2.58562 10.8171 2.24189 10.3931 2.24189ZM6.97678 3.13923C5.1617 3.13923 3.69008 4.61084 3.69008 6.42593C3.69008 8.24101 5.1617 9.71196 6.97678 9.71196C8.79187 9.71196 10.263 8.24101 10.263 6.42593C10.263 4.61084 8.79187 3.13923 6.97678 3.13923ZM6.97676 4.29257C8.1549 4.29257 9.11011 5.24765 9.11011 6.42593C9.11011 7.60407 8.1549 8.55928 6.97676 8.55928C5.79848 8.55928 4.8434 7.60407 4.8434 6.42593C4.8434 5.24765 5.79848 4.29257 6.97676 4.29257Z" fill="white"/>
</svg>
