<svg width="14" height="10" viewBox="0 0 14 10" fill="none" xmlns="http://www.w3.org/2000/svg">
<path fill-rule="evenodd" clip-rule="evenodd" d="M11.977 0.300543C12.5277 0.451676 12.9615 0.896985 13.1087 1.46249C13.3762 2.4874 13.3762 4.62588 13.3762 4.62588C13.3762 4.62588 13.3762 6.76429 13.1087 7.78927C12.9615 8.35477 12.5277 8.80008 11.977 8.95129C10.9789 9.22588 6.97617 9.22588 6.97617 9.22588C6.97617 9.22588 2.97348 9.22588 1.9753 8.95129C1.42454 8.80008 0.99079 8.35477 0.84359 7.78927C0.576172 6.76429 0.576172 4.62588 0.576172 4.62588C0.576172 4.62588 0.576172 2.4874 0.84359 1.46249C0.99079 0.896985 1.42454 0.451676 1.9753 0.300543C2.97348 0.0258789 6.97617 0.0258789 6.97617 0.0258789C6.97617 0.0258789 10.9789 0.0258789 11.977 0.300543ZM5.77618 2.82584V6.82584L8.97618 4.82591L5.77618 2.82584Z" fill="white"/>
</svg>
