<svg width="13" height="11" viewBox="0 0 13 11" fill="none" xmlns="http://www.w3.org/2000/svg">
<path fill-rule="evenodd" clip-rule="evenodd" d="M6.61716 3.17973L6.64235 3.59495L6.22266 3.54411C4.69499 3.34921 3.36039 2.68823 2.22723 1.57814L1.67324 1.02733L1.53055 1.43408C1.22838 2.3408 1.42143 3.29836 2.05096 3.94239C2.38671 4.2983 2.31117 4.34914 1.732 4.13729C1.53055 4.0695 1.35428 4.01865 1.33749 4.04408C1.27874 4.10339 1.48019 4.87453 1.63967 5.1796C1.85791 5.6033 2.30278 6.01852 2.78961 6.26427L3.20091 6.45917L2.71407 6.46765C2.24402 6.46765 2.22723 6.47612 2.27759 6.65408C2.44547 7.20489 3.10858 7.78959 3.84723 8.04381L4.36764 8.22177L3.91438 8.49294C3.24288 8.88274 2.45386 9.10307 1.66485 9.12002C1.28713 9.12849 0.976562 9.16238 0.976562 9.18781C0.976562 9.27255 2.0006 9.74709 2.59656 9.93352C4.38443 10.4843 6.50805 10.2471 8.10286 9.30644C9.23602 8.637 10.3692 7.30657 10.898 6.01852C11.1834 5.33213 11.4688 4.07797 11.4688 3.47632C11.4688 3.08651 11.4939 3.03567 11.964 2.5696C12.241 2.29843 12.5012 2.00184 12.5515 1.9171C12.6355 1.75609 12.6271 1.75609 12.199 1.90015C11.4855 2.15437 11.3848 2.12047 11.7374 1.73914C11.9976 1.46797 12.3081 0.976481 12.3081 0.832423C12.3081 0.807001 12.1822 0.849371 12.0395 0.925637C11.8884 1.01038 11.5527 1.13749 11.3009 1.21375L10.8476 1.35781L10.4363 1.07817C10.2097 0.925637 9.89073 0.756157 9.72285 0.705312C9.29477 0.586676 8.64006 0.603624 8.25395 0.739209C7.20473 1.12054 6.54162 2.10353 6.61716 3.17973Z" fill="white"/>
</svg>
