<svg width="14" height="13" viewBox="0 0 14 13" fill="none" xmlns="http://www.w3.org/2000/svg">
<path fill-rule="evenodd" clip-rule="evenodd" d="M13.3762 6.41701C13.3762 6.84982 13.3321 7.28204 13.2456 7.70336C13.1612 8.11466 13.0362 8.51847 12.8724 8.90448C12.7124 9.28367 12.514 9.64908 12.2821 9.98984C12.0536 10.3285 11.7905 10.6461 11.5014 10.9357C11.2117 11.2241 10.8929 11.4865 10.5545 11.7159C10.2126 11.9462 9.84667 12.1443 9.46726 12.3051C9.08068 12.468 8.67594 12.5928 8.265 12.677C7.84312 12.7638 7.40933 12.8081 6.97588 12.8081C6.54211 12.8081 6.10834 12.7638 5.68707 12.677C5.2755 12.5928 4.87079 12.468 4.48451 12.3051C4.10513 12.1443 3.73884 11.9462 3.39696 11.7159C3.0585 11.4865 2.73974 11.2241 2.45066 10.9357C2.16128 10.6461 1.89812 10.3285 1.66936 9.98984C1.43873 9.64908 1.23995 9.28365 1.07933 8.90448C0.915553 8.51847 0.790251 8.11464 0.705556 7.70336C0.619935 7.28204 0.576172 6.84982 0.576172 6.41701C0.576172 5.98386 0.61991 5.55072 0.705581 5.13033C0.790276 4.71902 0.915578 4.3146 1.07936 3.9292C1.23998 3.54974 1.43875 3.18401 1.66939 2.84322C1.89815 2.50433 2.1613 2.18725 2.45068 1.89733C2.73976 1.60897 3.05853 1.34717 3.39698 1.11812C3.73887 0.886864 4.10515 0.688727 4.48454 0.527687C4.87081 0.364445 5.2755 0.239324 5.6871 0.155702C6.10837 0.0695785 6.54214 0.0258789 6.97591 0.0258789C7.40935 0.0258789 7.84312 0.0695785 8.26502 0.155702C8.67597 0.239349 9.08068 0.36447 9.46728 0.527687C9.84667 0.688702 10.2126 0.886864 10.5545 1.11812C10.893 1.34717 11.2118 1.60897 11.5014 1.89733C11.7905 2.18725 12.0537 2.50433 12.2821 2.84322C12.514 3.18401 12.7124 3.54976 12.8724 3.9292C13.0362 4.3146 13.1612 4.71902 13.2456 5.13033C13.3321 5.55072 13.3762 5.98386 13.3762 6.41701ZM4.64386 1.48041C3.1197 2.19912 1.98215 3.60153 1.62744 5.29169C1.77152 5.29294 4.04914 5.32165 6.67333 4.62541C5.72736 2.94712 4.71668 1.57749 4.64386 1.48041ZM7.12616 5.46584C4.31197 6.30714 1.6115 6.2466 1.51463 6.24288C1.51305 6.30153 1.51025 6.35832 1.51025 6.417C1.51025 7.81909 2.03996 9.09731 2.91063 10.0638C2.90875 10.061 4.40448 7.41123 7.35399 6.45882C7.42524 6.43511 7.49776 6.41387 7.56963 6.39329C7.43245 6.08311 7.28273 5.77229 7.12616 5.46584ZM10.5854 2.32082C9.62318 1.47354 8.35969 0.959601 6.97587 0.959601C6.53177 0.959601 6.10081 1.01328 5.68798 1.11251C5.76985 1.22237 6.79648 2.58234 7.73121 4.29618C9.79352 3.52415 10.572 2.34078 10.5854 2.32082ZM7.94219 7.29765C7.93002 7.30168 7.91784 7.30515 7.90594 7.30951C4.68114 8.4321 3.62804 10.6944 3.61664 10.7191C4.54452 11.4397 5.70833 11.8744 6.9759 11.8744C7.7328 11.8744 8.45377 11.7205 9.10973 11.4419C9.02879 10.965 8.71128 9.29362 7.94219 7.29765ZM10.0301 10.9432C11.2573 10.1162 12.1289 8.80307 12.3721 7.28202C12.2596 7.24582 10.7304 6.76242 8.96625 7.04486C9.68317 9.01214 9.97445 10.6143 10.0301 10.9432ZM8.1519 5.10944C8.27875 5.36971 8.4016 5.63461 8.51503 5.90083C8.55536 5.99634 8.59474 6.08996 8.63316 6.18357C10.5108 5.94763 12.3605 6.34458 12.4396 6.36079C12.4271 5.06699 11.9636 3.87957 11.1968 2.94994C11.1864 2.96458 10.3098 4.22939 8.1519 5.10944Z" fill="white"/>
</svg>
