<svg width="49" height="49" viewBox="0 0 49 49" fill="none" xmlns="http://www.w3.org/2000/svg">
<path d="M20.9918 20.1251C18.7929 20.1251 16.9924 18.3245 16.9924 16.1256V0.125H4.99246C2.79272 0.125 0.992188 1.92553 0.992188 4.12527V44.1247C0.992188 46.3245 2.79272 48.125 4.99246 48.125H28.9924C31.1912 48.125 32.9918 46.3245 32.9918 44.1247V20.1248L20.9918 20.1251ZM18.9921 44.1249H14.9918C13.8866 44.1249 12.9921 43.231 12.9921 42.1252C12.9921 41.0195 13.8865 40.1255 14.9918 40.1255H18.9921C20.0978 40.1255 20.9918 41.0195 20.9918 42.1252C20.9918 43.231 20.0978 44.1249 18.9921 44.1249Z" fill="url(#paint0_linear_5_3811)"/>
<path d="M48.4029 6.71206L42.8164 1.12598L40.6953 3.24954L45.5762 8.12623L40.6975 13.0054L42.8186 15.1256L48.4046 9.53955C49.1852 8.75858 49.1852 7.49045 48.403 6.71195L48.4029 6.71206Z" fill="url(#paint1_linear_5_3811)"/>
<path d="M29.287 3.24805L27.1659 1.12695L21.5782 6.71304C20.7968 7.49443 20.7968 8.76385 21.5782 9.54138L27.1659 15.1266L29.287 13.0055L24.4061 8.12635L29.287 3.24805Z" fill="url(#paint2_linear_5_3811)"/>
<path d="M34.4845 0.125977H37.5062L35.5078 16.1266H32.4844L34.4845 0.125977Z" fill="url(#paint3_linear_5_3811)"/>
<defs>
<linearGradient id="paint0_linear_5_3811" x1="16.992" y1="0.125" x2="16.992" y2="48.125" gradientUnits="userSpaceOnUse">
<stop stop-color="#FC00FF"/>
<stop offset="1" stop-color="#00DBDE"/>
</linearGradient>
<linearGradient id="paint1_linear_5_3811" x1="44.8426" y1="1.12598" x2="44.8426" y2="15.1256" gradientUnits="userSpaceOnUse">
<stop stop-color="#FC00FF"/>
<stop offset="1" stop-color="#00DBDE"/>
</linearGradient>
<linearGradient id="paint2_linear_5_3811" x1="25.1396" y1="1.12695" x2="25.1396" y2="15.1266" gradientUnits="userSpaceOnUse">
<stop stop-color="#FC00FF"/>
<stop offset="1" stop-color="#00DBDE"/>
</linearGradient>
<linearGradient id="paint3_linear_5_3811" x1="34.9953" y1="0.125977" x2="34.9953" y2="16.1266" gradientUnits="userSpaceOnUse">
<stop stop-color="#FC00FF"/>
<stop offset="1" stop-color="#00DBDE"/>
</linearGradient>
</defs>
</svg>
