<svg width="62" height="36" viewBox="0 0 62 36" fill="none" xmlns="http://www.w3.org/2000/svg">
<path d="M58.5921 9.38095H45.4752C43.6667 9.38095 42.196 10.8518 42.196 12.6604V32.3371C42.196 34.1457 43.6667 35.6166 45.4752 35.6166H58.5921C60.4006 35.6166 61.8713 34.1457 61.8713 32.3371V12.6604C61.8713 10.8518 60.4006 9.38095 58.5921 9.38095ZM49.8475 20.3124H47.6613C47.0572 20.3124 46.5683 19.8235 46.5683 19.2193C46.5683 18.6151 47.0572 18.1261 47.6613 18.1261H49.8475C50.4516 18.1261 50.9406 18.6151 50.9406 19.2193C50.9406 19.8235 50.4516 20.3124 49.8475 20.3124ZM54.2198 15.9398H47.6613C47.0572 15.9398 46.5683 15.4509 46.5683 14.8467C46.5683 14.2425 47.0572 13.7535 47.6613 13.7535H54.2198C54.8239 13.7535 55.3129 14.2425 55.3129 14.8467C55.3129 15.4509 54.8239 15.9398 54.2198 15.9398ZM37.1116 31.5425C37.3581 32.5288 37.1414 33.5537 36.5148 34.3545C35.8892 35.1568 34.9479 35.6161 33.9304 35.6161H28.5997C27.5823 35.6161 26.6409 35.1568 26.0153 34.354C25.3888 33.5532 25.1721 32.5284 25.4185 31.542L26.0397 29.057H36.4903L37.1116 31.5425ZM50.9406 7.19464V6.10149C50.9406 3.08802 48.4885 0.635742 45.4752 0.635742H17.0553C14.042 0.635742 11.5899 3.08802 11.5899 6.10149V13.7535H12.683C15.6962 13.7535 18.1484 16.2058 18.1484 19.2193V26.8713H40.0098V12.6604C40.0098 9.64692 42.4619 7.19464 45.4752 7.19464H50.9406ZM27.986 15.9398H19.2414C18.6373 15.9398 18.1484 15.4509 18.1484 14.8467C18.1484 14.2425 18.6373 13.7535 19.2414 13.7535H27.986C28.5901 13.7535 29.0791 14.2425 29.0791 14.8467C29.0791 15.4509 28.5901 15.9398 27.986 15.9398ZM36.7306 9.38095H19.2414C18.6373 9.38095 18.1484 8.89195 18.1484 8.28779C18.1484 7.68364 18.6373 7.19464 19.2414 7.19464H36.7306C37.3347 7.19464 37.8237 7.68364 37.8237 8.28779C37.8237 8.89195 37.3347 9.38095 36.7306 9.38095ZM12.683 15.9398H3.9384C2.12989 15.9398 0.65918 17.4107 0.65918 19.2193V32.3371C0.65918 34.1457 2.12989 35.6166 3.9384 35.6166H12.683C14.4915 35.6166 15.9622 34.1457 15.9622 32.3371V19.2193C15.9622 17.4107 14.4915 15.9398 12.683 15.9398ZM8.31069 22.4987H6.12455C5.52043 22.4987 5.03147 22.0098 5.03147 21.4056C5.03147 20.8014 5.52043 20.3124 6.12455 20.3124H8.31069C8.91481 20.3124 9.40377 20.8014 9.40377 21.4056C9.40377 22.0098 8.91481 22.4987 8.31069 22.4987Z" fill="white"/>
</svg>
