<svg width="32" height="33" viewBox="0 0 32 33" fill="none" xmlns="http://www.w3.org/2000/svg">
<path d="M26.4999 0.857422H5.50023C2.47026 0.857422 0.000182041 3.3275 0.000182041 6.35747V9.35734H31.9999V6.35747C32.0002 3.3275 29.5301 0.857422 26.5001 0.857422H26.4999ZM7.05997 6.41746C6.77988 6.69755 6.39995 6.8574 5.99985 6.8574C5.60995 6.8574 5.2198 6.69755 4.93997 6.41746C4.65988 6.14757 4.50003 5.75744 4.50003 5.35758C4.50003 4.96768 4.66011 4.57753 4.93997 4.2977C5.49991 3.74772 6.50001 3.74772 7.05997 4.2977C7.33982 4.57756 7.49991 4.96743 7.49991 5.35758C7.49991 5.75743 7.33982 6.13739 7.05997 6.41746ZM11.5599 6.41746C11.2798 6.69755 10.8999 6.8574 10.4998 6.8574C10.0997 6.8574 9.71971 6.69731 9.43988 6.41746C9.15979 6.13737 8.99995 5.75744 8.99995 5.35758C8.99995 4.96768 9.16003 4.57753 9.43988 4.2977C9.99983 3.73776 10.9999 3.74772 11.5599 4.2977C11.8397 4.57756 11.9998 4.96743 11.9998 5.35758C11.9998 5.75743 11.8397 6.14759 11.5599 6.41746ZM26 6.8574H19.0003C18.1703 6.8574 17.5003 6.18742 17.5003 5.35734C17.5003 4.53747 18.1703 3.85753 19.0001 3.85753H25.9998C26.8299 3.85753 27.4998 4.53747 27.4998 5.35759C27.4998 6.18742 26.8299 6.8574 26 6.8574ZM0 12.3574V27.3574C0 30.3973 2.47008 32.8574 5.50005 32.8574H26.4997C29.5297 32.8574 31.9998 30.3973 31.9998 27.3574V12.3574H0ZM11.0602 25.2974C11.6503 25.8874 11.6503 26.8372 11.0602 27.4174C10.7702 27.7174 10.38 27.8573 10.0001 27.8573C9.62016 27.8573 9.23 27.7174 8.94021 27.4174L4.94021 23.4174C4.35015 22.8373 4.35015 21.8874 4.94021 21.2974L8.94021 17.2974C9.53027 16.7173 10.4701 16.7173 11.0602 17.2974C11.6503 17.8874 11.6503 18.8372 11.0602 19.4174L8.12009 22.3575L11.0602 25.2974ZM19.4199 17.3572L15.4199 28.857C15.1998 29.4769 14.6199 29.8569 14 29.8569C13.8399 29.8569 13.6701 29.837 13.51 29.777C12.72 29.5071 12.3099 28.6469 12.5801 27.8671L16.5801 16.3673C16.8602 15.5873 17.7102 15.1772 18.49 15.4474C19.28 15.7173 19.69 16.5673 19.4199 17.3573L19.4199 17.3572ZM27.0601 23.4172L23.0601 27.4172C22.7703 27.7172 22.3802 27.8571 22.0002 27.8571C21.6203 27.8571 21.2301 27.7172 20.9403 27.4172C20.3503 26.8371 20.3503 25.8872 20.9403 25.2972L23.8802 22.3573L20.9403 19.4174C20.3503 18.8373 20.3503 17.8875 20.9403 17.2974C21.5304 16.7173 22.4703 16.7173 23.0603 17.2974L27.0603 21.2974C27.6502 21.8872 27.6502 22.8371 27.0601 23.4172H27.0601Z" fill="white"/>
</svg>
