<svg width="32" height="33" viewBox="0 0 32 33" fill="none" xmlns="http://www.w3.org/2000/svg">
<path d="M0 29.9393C0 31.2894 1.10007 32.3894 2.45012 32.3894H29.55C30.9 32.3894 31.9999 31.2893 31.9999 29.9395V8.68945H0.000117792L0 29.9393ZM6.10024 11.8395H7.90032C8.35034 11.8395 8.75042 12.0895 8.90028 12.4896L9.55031 13.8896H25.1999C25.5498 13.8896 25.8499 14.0397 26.05 14.2896C26.25 14.5396 26.3998 14.8396 26.3499 15.1896L25.55 22.7395C25.5001 23.3397 25.0001 23.7894 24.4 23.7894L10.7999 23.7892L10.0999 24.8892C9.94984 25.0893 10.05 25.2893 10.0999 25.3892C10.1499 25.4392 10.25 25.6392 10.5499 25.6392H25.7499C25.9999 25.6392 26.1999 25.8392 26.1999 26.0892C26.1999 26.3392 25.9999 26.5392 25.7499 26.5392H23.6998C23.8499 26.7892 23.8999 27.0891 23.8999 27.3893C23.8999 28.3893 23.1 29.1894 22.0998 29.1894C21.0998 29.1894 20.2997 28.3895 20.2997 27.3893C20.2997 27.0894 20.3996 26.7892 20.4997 26.5392H14.5002C14.6503 26.7892 14.7003 27.0891 14.7003 27.3893C14.7003 28.3893 13.9004 29.1894 12.9002 29.1894C11.9002 29.1894 11.1001 28.3895 11.1001 27.3893C11.1001 27.0894 11.2 26.7892 11.3002 26.5392H10.5003C9.40019 26.5392 8.70018 25.2893 9.30031 24.3393L10.0503 23.1394L10.0003 22.7393L8.80038 14.5394L8.05023 12.8894C8.00028 12.8395 7.95033 12.7895 7.90014 12.7895H6.10006C5.85008 12.7895 5.65005 12.5895 5.65005 12.3395C5.65028 12.0396 5.85031 11.8396 6.10029 11.8396L6.10024 11.8395Z" fill="white"/>
<path d="M29.9996 0.390625H2.45012C1.10007 0.390625 0 1.4907 0 2.84074V7.69082L31.9998 7.69059V2.34056C31.9998 1.2907 31.0998 0.390631 29.9997 0.390631L29.9996 0.390625ZM4.1001 5.34059C3.4001 5.34059 2.80003 4.74047 2.80003 4.04052C2.80003 3.34057 3.40016 2.74044 4.1001 2.74044C4.80005 2.74044 5.40018 3.34057 5.40018 4.04052C5.39995 4.79067 4.79982 5.34059 4.1001 5.34059ZM9.14995 5.34059C8.39998 5.34059 7.84988 4.74047 7.84988 4.04052C7.84988 3.34057 8.3998 2.74044 9.14995 2.74044C9.84996 2.74044 10.45 3.34057 10.45 4.04052C10.5 4.79067 9.89988 5.34059 9.14995 5.34059ZM14.25 5.34059C13.55 5.34059 12.9499 4.74047 12.9499 4.04052C12.9499 3.34057 13.5501 2.74044 14.25 2.74044C14.95 2.74044 15.5501 3.34057 15.5501 4.04052C15.5499 4.79067 14.95 5.34059 14.25 5.34059ZM28.6998 4.5407H18.3496C18.0497 4.5407 17.8497 4.34067 17.8497 4.04073C17.8497 3.79075 18.0497 3.54076 18.3496 3.54076H28.6998C28.9997 3.54076 29.1998 3.79075 29.1998 4.04073C29.1998 4.34066 28.9997 4.5407 28.6998 4.5407Z" fill="white"/>
<path d="M17.5516 21.0917C17.9516 21.0917 18.2516 20.7918 18.2516 20.3917V17.2918C18.2516 16.8917 17.9516 16.5918 17.5516 16.5918C17.1515 16.5918 16.8516 16.8917 16.8516 17.2918V20.3917C16.9015 20.7918 17.2014 21.0917 17.5516 21.0917Z" fill="white"/>
<path d="M21.4031 21.0917C21.8032 21.0917 22.1031 20.7918 22.1031 20.3917V17.2918C22.1031 16.8917 21.8032 16.5918 21.4031 16.5918C21.0031 16.5918 20.7031 16.8917 20.7031 17.2918V20.3917C20.7531 20.7918 21.053 21.0917 21.4031 21.0917Z" fill="white"/>
</svg>
