<svg width="44" height="28" viewBox="0 0 44 28" fill="none" xmlns="http://www.w3.org/2000/svg">
<path d="M13.2791 20.9081C11.4556 21.2511 10.2543 23.008 10.5976 24.8317C10.9406 26.6552 12.6977 27.8558 14.5216 27.5132C16.3454 27.1702 17.546 25.4131 17.2031 23.5895C16.8594 21.7658 15.1026 20.5651 13.2791 20.9081Z" fill="white"/>
<path d="M36.5838 11.3294C36.619 11.0089 36.6321 10.684 36.6321 10.3568C36.6321 4.66268 32.0186 0.0507812 26.326 0.0507812C21.9074 0.0507812 18.1505 2.83499 16.6835 6.74501C15.7142 5.67891 14.3296 4.99766 12.7739 4.99766C9.8414 4.99766 7.46616 7.3729 7.46616 10.3053C7.46616 10.6515 7.5017 10.9882 7.5677 11.3165C3.65581 11.9622 0.664062 15.3344 0.664062 19.4231C0.664062 21.547 1.46554 23.4809 2.78165 24.9417L2.75182 24.7827C2.61729 24.0666 4.99035 24.6123 5.2978 22.7733C5.60621 20.9276 3.17794 20.6796 3.53712 20.044L5.01318 17.4294C5.37172 16.7945 6.83445 18.7399 8.25657 17.53C9.6847 16.3154 7.98814 14.5611 8.67222 14.3063L11.4863 13.2589C12.1698 13.0044 12.034 15.4365 13.9035 15.4269C15.7767 15.4174 15.6114 12.9844 16.2987 13.2306L19.1248 14.2443C19.7629 14.4759 18.4173 15.9584 19.3307 17.1894C19.4853 17.3973 19.6109 17.5077 19.834 17.6282C21.2335 18.3831 22.4824 16.7376 22.8276 17.3338L24.3316 19.9321C24.6965 20.5616 22.273 20.8379 22.5985 22.6646C22.9244 24.4909 25.2933 23.9138 25.1683 24.6306L24.654 27.5887C24.6483 27.6204 24.6349 27.6436 24.6226 27.6677H35.0862C39.6399 27.6677 43.3307 23.9817 43.3307 19.4232C43.3307 15.3843 40.4192 12.0398 36.5839 11.3293L36.5838 11.3294Z" fill="white"/>
</svg>
