<svg width="32" height="33" viewBox="0 0 32 33" fill="none" xmlns="http://www.w3.org/2000/svg">
<path fill-rule="evenodd" clip-rule="evenodd" d="M0.384081 2.16312C0.757808 1.41587 1.47438 0.710938 2.96469 0.710938L29.0333 0.710944C29.0333 0.710944 29.7994 0.721264 30.5469 1.09502C31.2945 1.46875 31.9994 2.18959 31.9994 3.67563V6.63714H0V3.67563C0 3.67563 0.0103204 2.91064 0.384081 2.16312ZM3.53981 1.74769C3.52978 1.74758 3.51988 1.74746 3.50986 1.74781H3.50985C2.556 1.77239 1.77963 2.56806 1.77963 3.52747C1.77963 4.50218 2.58031 5.30394 3.55509 5.30394C4.5296 5.30394 5.3361 4.50224 5.3361 3.52747C5.3361 2.55303 4.5296 1.74781 3.55509 1.74781C3.54995 1.74781 3.54486 1.74775 3.53981 1.74769ZM7.68633 1.74769C7.67637 1.74758 7.66644 1.74746 7.6564 1.74781H7.65641C6.70228 1.77239 5.92618 2.56806 5.92618 3.52747C5.92618 4.50218 6.72659 5.30394 7.70137 5.30394C8.67615 5.30394 9.48238 4.50224 9.48238 3.52747C9.48238 2.55303 8.67615 1.74781 7.70137 1.74781C7.69633 1.74781 7.69133 1.74775 7.68633 1.74769ZM11.8374 1.74769C11.8275 1.74758 11.8175 1.74746 11.8075 1.74781C10.8534 1.77239 10.0728 2.56806 10.0728 3.52747C10.0728 4.50218 10.8779 5.30394 11.8525 5.30394C12.8272 5.30394 13.6289 4.50224 13.6289 3.52747C13.6289 2.55303 12.8272 1.74781 11.8525 1.74781C11.8474 1.74781 11.8424 1.74775 11.8374 1.74769ZM2.96448 3.52748C2.96448 3.1934 3.22054 2.93285 3.55489 2.93285C3.88897 2.93285 4.15085 3.19339 4.15085 3.52748C4.15085 3.86184 3.88897 4.11788 3.55489 4.11788C3.22053 4.11788 2.96448 3.86183 2.96448 3.52748ZM7.11103 3.52748C7.11103 3.1934 7.36708 2.93285 7.70116 2.93285C8.03551 2.93285 8.29712 3.19339 8.29712 3.52748C8.29712 3.86184 8.03551 4.11788 7.70116 4.11788C7.36708 4.11788 7.11103 3.86183 7.11103 3.52748ZM11.2576 3.52748C11.2576 3.1934 11.5182 2.93285 11.8522 2.93285C12.1866 2.93285 12.4427 3.19339 12.4427 3.52748C12.4427 3.86184 12.1866 4.11788 11.8522 4.11788C11.5182 4.11788 11.2576 3.86183 11.2576 3.52748ZM0 29.7441V7.82227H31.9995V29.7441C31.9995 29.7441 31.9878 30.5102 31.6141 31.2577C31.2403 32.0052 30.523 32.7101 29.0335 32.7101H2.96468C1.48793 32.7101 0.757841 32.0052 0.38408 31.2577C0.0103158 30.5101 0 29.7441 0 29.7441ZM16.4414 9.65194C16.3297 9.52471 16.1686 9.45144 15.9994 9.45064C15.8303 9.4517 15.67 9.52501 15.5583 9.65198L10.8171 14.9836C10.6798 15.1365 10.6314 15.3499 10.6899 15.547L12.2394 20.7085H11.8493C10.9602 20.7085 10.482 21.1926 10.2661 21.6365C10.0503 22.0806 10.0741 22.5022 10.0741 22.5022V28.4113C10.0727 28.7385 10.337 29.0048 10.6642 29.0059H21.2672C21.5929 29.0048 21.8563 28.7414 21.8574 28.4158L21.8923 22.4895C21.8923 22.4895 21.8992 22.0618 21.6735 21.6227C21.4479 21.1836 20.9601 20.7085 20.0811 20.7085H19.7581L21.3053 15.5469C21.3648 15.3507 21.3186 15.1372 21.1829 14.9835L16.4414 9.65194ZM16.5895 14.7868V11.6006L20.0764 15.5216L18.5234 20.7085H13.4753L11.9234 15.5216L15.4045 11.6065V14.7868H16.5895ZM11.8495 21.8946C11.8495 21.8946 18.0983 21.8935 20.0811 21.8935C20.4001 21.8935 20.5405 22.012 20.6194 22.1655C20.6982 22.3189 20.7075 22.4895 20.7075 22.4895L20.676 27.8208H11.2593V22.4895V22.471C11.2593 22.471 11.2612 22.3012 11.3334 22.1528C11.4056 22.0041 11.5424 21.8946 11.8495 21.8946Z" fill="url(#paint0_linear_1_3128)"/>
<defs>
<linearGradient id="paint0_linear_1_3128" x1="0" y1="0.710937" x2="32.0007" y2="32.7096" gradientUnits="userSpaceOnUse">
<stop stop-color="#FC00FF"/>
<stop offset="1" stop-color="#00DBDE"/>
</linearGradient>
</defs>
</svg>
