<svg width="42" height="25" viewBox="0 0 42 25" fill="none" xmlns="http://www.w3.org/2000/svg">
<path d="M39.2176 6.78326H30.473C29.2674 6.78326 28.2869 7.76381 28.2869 8.96956V22.0874C28.2869 23.2931 29.2674 24.2737 30.473 24.2737H39.2176C40.4233 24.2737 41.4038 23.2931 41.4038 22.0874V8.96956C41.4038 7.76381 40.4233 6.78326 39.2176 6.78326ZM33.3879 14.0709H31.9305C31.5277 14.0709 31.2018 13.7449 31.2018 13.3422C31.2018 12.9394 31.5277 12.6134 31.9305 12.6134H33.3879C33.7906 12.6134 34.1166 12.9394 34.1166 13.3422C34.1166 13.7449 33.7906 14.0709 33.3879 14.0709ZM36.3028 11.1559H31.9305C31.5277 11.1559 31.2018 10.8299 31.2018 10.4271C31.2018 10.0243 31.5277 9.69833 31.9305 9.69833H36.3028C36.7055 9.69833 37.0315 10.0243 37.0315 10.4271C37.0315 10.8299 36.7055 11.1559 36.3028 11.1559ZM24.8973 21.5577C25.0616 22.2152 24.9172 22.8984 24.4995 23.4323C24.0824 23.9672 23.4549 24.2733 22.7765 24.2733H19.2227C18.5444 24.2733 17.9169 23.9672 17.4998 23.432C17.0821 22.8981 16.9376 22.2149 17.1019 21.5573L17.5161 19.9006H24.4831L24.8973 21.5577ZM34.1166 5.32573V4.59696C34.1166 2.58798 32.4819 0.953125 30.473 0.953125H11.5264C9.5176 0.953125 7.88286 2.58798 7.88286 4.59696V9.69833H8.61158C10.6204 9.69833 12.2552 11.3332 12.2552 13.3422V18.4435H26.8295V8.96956C26.8295 6.96058 28.4642 5.32573 30.473 5.32573H34.1166ZM18.8136 11.1559H12.9839C12.5811 11.1559 12.2552 10.8299 12.2552 10.4271C12.2552 10.0243 12.5811 9.69833 12.9839 9.69833H18.8136C19.2163 9.69833 19.5423 10.0243 19.5423 10.4271C19.5423 10.8299 19.2163 11.1559 18.8136 11.1559ZM24.6433 6.78326H12.9839C12.5811 6.78326 12.2552 6.45726 12.2552 6.05449C12.2552 5.65172 12.5811 5.32573 12.9839 5.32573H24.6433C25.0461 5.32573 25.372 5.65172 25.372 6.05449C25.372 6.45726 25.0461 6.78326 24.6433 6.78326ZM8.61158 11.1559H2.78185C1.57618 11.1559 0.595703 12.1364 0.595703 13.3422V22.0874C0.595703 23.2931 1.57618 24.2737 2.78185 24.2737H8.61158C9.81725 24.2737 10.7977 23.2931 10.7977 22.0874V13.3422C10.7977 12.1364 9.81725 11.1559 8.61158 11.1559ZM5.69671 15.5285H4.23928C3.83654 15.5285 3.51057 15.2025 3.51057 14.7997C3.51057 14.3969 3.83654 14.0709 4.23928 14.0709H5.69671C6.09945 14.0709 6.42543 14.3969 6.42543 14.7997C6.42543 15.2025 6.09945 15.5285 5.69671 15.5285Z" fill="url(#paint0_linear_1_2112)"/>
<defs>
<linearGradient id="paint0_linear_1_2112" x1="0.595703" y1="0.953125" x2="38.638" y2="31.09" gradientUnits="userSpaceOnUse">
<stop stop-color="#FC00FF"/>
<stop offset="1" stop-color="#00DBDE"/>
</linearGradient>
</defs>
</svg>
